# xmcd
#
# Track frame offsets: 
#        150
#        8936
#        19097
#        26860
#        37791
#        48999
#        60252
#        70331
#        82344
#        91941
#        102514
#        113716
#        124520
#        135626
#        144733
#        154922
#        165005
#        175617
#        186117
#        196018
#        205942
#        215962
#        226022
#        236189
#        248639
#        258064
#
# Disc length: 3561 seconds
#
# Revision: 1
# Processed by: cddbd v1.5.2PL0 Copyright (c) Steve Scherf et al.
# Submitted via: ExactAudioCopyFreeDBPlugin 1.0
#
DISCID=590de71a
DTITLE=Jim Reeves - Welcome To My World - CD 06
DYEAR=2001
DGENRE=Country
TTITLE0=Throw Another Log On The Fire
TTITLE1=Making Believe
TTITLE2='Til The End Of The World
TTITLE3=How's The World Treating You
TTITLE4=Someday (You'll Want Me To Want You)
TTITLE5=Just Call Me Lonesome
TTITLE6=(Now And Then There's) A Fool Such As
TTITLE7=May The Good Lord Bless And Keep You
TTITLE8=Dear Hearts And Gentle People
TTITLE9=Am I Losing You
TTITLE10=Satan Can't Hold Me
TTITLE11=Scarlet Ribbons
TTITLE12=If Heartache Is The Fashion
TTITLE13=Home (Roger Miller)
TTITLE14=Partners (Danny Hill)
TTITLE15=I'm Beginning To Forget You
TTITLE16=He'll Have To Go
TTITLE17=In A Mansion Stands My Love
TTITLE18=After Awhile
TTITLE19=Snow Flake
TTITLE20=But You Love Me Daddy (& Dorothy Ann Dillard)
TTITLE21=But You Love Me Daddy (& Steve Moore)
TTITLE22=You'll Never Be Mine Again
TTITLE23=Stand At Your Window
TTITLE24=What Would You Do
TTITLE25=Don't You Want To Be My Girl (Poor Little Doll)
EXTD=
EXTT0=
EXTT1=
EXTT2=
EXTT3=
EXTT4=
EXTT5=
EXTT6=
EXTT7=
EXTT8=
EXTT9=
EXTT10=
EXTT11=
EXTT12=
EXTT13=
EXTT14=
EXTT15=
EXTT16=
EXTT17=
EXTT18=
EXTT19=
EXTT20=
EXTT21=
EXTT22=
EXTT23=
EXTT24=
EXTT25=
PLAYORDER=
